<?xml version="1.0" standalone="no"?>
<!DOCTYPE svg PUBLIC "-//W3C//DTD SVG 20010904//EN"
 "http://www.w3.org/TR/2001/REC-SVG-20010904/DTD/svg10.dtd">
<svg version="1.0" xmlns="http://www.w3.org/2000/svg"
 width="424.000000pt" height="424.000000pt" viewBox="0 0 424.000000 424.000000"
 preserveAspectRatio="xMidYMid meet">
<metadata>
Created by potrace 1.11, written by Peter Selinger 2001-2013
</metadata>
<g transform="translate(0.000000,424.000000) scale(0.100000,-0.100000)"
fill="#000000" stroke="none">
<path d="M280 4196 c0 -25 5 -35 20 -39 27 -7 58 -78 77 -180 37 -193 -22
-640 -117 -885 -40 -104 -90 -186 -153 -249 l-51 -53 247 0 247 0 0 -505 0
-505 795 0 795 0 0 -405 0 -405 -860 0 -860 0 0 -225 0 -225 -165 0 -165 0 0
-260 0 -260 1970 0 1970 0 -1 23 c0 12 -37 229 -83 482 l-83 460 -131 3 -132
3 0 204 0 205 70 0 70 0 0 705 0 705 221 0 221 0 -62 67 c-207 226 -292 532
-272 978 2 33 -2 92 -8 130 -11 65 -10 114 6 223 l6 42 -1786 0 -1786 0 0 -34z
m3390 -2076 l0 -670 -335 0 -335 0 0 165 0 165 155 0 155 0 0 360 0 360 -1200
0 -1200 0 0 -325 0 -325 -145 0 -145 0 0 470 0 470 1525 0 1525 0 0 -670z
m-430 25 l0 -295 -1135 0 -1135 0 0 295 0 295 1135 0 1135 0 0 -295z m290
-970 l0 -205 -265 0 -265 0 0 205 0 205 265 0 265 0 0 -205z m-2540 -465 l0
-190 -250 0 -250 0 0 190 0 190 250 0 250 0 0 -190z"/>
</g>
</svg>
